<svg width="24" height="24" viewBox="0 0 24 24" fill="none" xmlns="http://www.w3.org/2000/svg">
<rect width="24" height="24" fill="#323238"/>
<path d="M12 5C8.136 5 5 8.136 5 12C5 15.864 8.136 19 12 19C15.864 19 19 15.864 19 12C19 8.136 15.864 5 12 5ZM15.248 9.76C15.143 10.866 14.688 13.554 14.457 14.793C14.359 15.318 14.163 15.493 13.981 15.514C13.575 15.549 13.267 15.248 12.875 14.989C12.259 14.583 11.909 14.331 11.314 13.939C10.621 13.484 11.069 13.232 11.468 12.826C11.573 12.721 13.365 11.09 13.4 10.943C13.4049 10.9207 13.4042 10.8976 13.3981 10.8757C13.392 10.8537 13.3806 10.8336 13.365 10.817C13.323 10.782 13.267 10.796 13.218 10.803C13.155 10.817 12.175 11.468 10.264 12.756C9.984 12.945 9.732 13.043 9.508 13.036C9.256 13.029 8.78 12.896 8.423 12.777C7.982 12.637 7.639 12.56 7.667 12.315C7.681 12.189 7.856 12.063 8.185 11.93C10.229 11.041 11.587 10.453 12.266 10.173C14.212 9.361 14.611 9.221 14.877 9.221C14.933 9.221 15.066 9.235 15.15 9.305C15.22 9.361 15.241 9.438 15.248 9.494C15.241 9.536 15.255 9.662 15.248 9.76Z" fill="#F1F1FF"/>
</svg>
