<svg width="24" height="24" viewBox="0 0 24 24" fill="none" xmlns="http://www.w3.org/2000/svg">
<rect width="24" height="24" fill="#323238"/>
<path d="M12 5C15.8661 5 19 8.1339 19 12C19 15.8661 15.8661 19 12 19C10.763 19.002 9.54767 18.6746 8.47901 18.0515L5.00281 19L5.94921 15.5224C5.32557 14.4534 4.99794 13.2376 5.00001 12C5.00001 8.1339 8.13391 5 12 5ZM9.61441 8.71L9.47441 8.7156C9.38377 8.72112 9.29519 8.74493 9.21401 8.7856C9.13807 8.8286 9.06875 8.88235 9.00821 8.9452C8.92421 9.0243 8.87661 9.0929 8.82551 9.1594C8.56659 9.49603 8.42719 9.90932 8.42931 10.334C8.43071 10.677 8.52031 11.0109 8.66031 11.3231C8.94661 11.9545 9.41771 12.623 10.0393 13.2425C10.1891 13.3916 10.3361 13.5414 10.4943 13.6807C11.2667 14.3607 12.1871 14.8511 13.1823 15.1129L13.5799 15.1738C13.7094 15.1808 13.8389 15.171 13.9691 15.1647C14.173 15.1542 14.372 15.099 14.5522 15.003C14.6439 14.9558 14.7333 14.9044 14.8203 14.849C14.8203 14.849 14.8504 14.8294 14.9078 14.786C15.0023 14.716 15.0604 14.6663 15.1388 14.5844C15.1969 14.5242 15.2473 14.4535 15.2858 14.373C15.3404 14.2589 15.395 14.0412 15.4174 13.8599C15.4342 13.7213 15.4293 13.6457 15.4272 13.5988C15.4244 13.5239 15.3621 13.4462 15.2942 13.4133L14.8868 13.2306C14.8868 13.2306 14.2778 12.9653 13.9054 12.7959C13.8664 12.7789 13.8247 12.7692 13.7822 12.7672C13.7343 12.7623 13.6859 12.7677 13.6403 12.783C13.5946 12.7983 13.5528 12.8233 13.5176 12.8561C13.5141 12.8547 13.4672 12.8946 12.9611 13.5078C12.9321 13.5468 12.892 13.5763 12.8462 13.5925C12.8003 13.6087 12.7506 13.6109 12.7035 13.5988C12.6579 13.5866 12.6132 13.5711 12.5698 13.5526C12.483 13.5162 12.4529 13.5022 12.3934 13.477C11.9917 13.3017 11.6197 13.0648 11.2909 12.7749C11.2027 12.6979 11.1208 12.6139 11.0368 12.5327C10.7614 12.269 10.5214 11.9706 10.3228 11.6451L10.2815 11.5786C10.2518 11.5339 10.2279 11.4857 10.2101 11.4351C10.1835 11.3322 10.2528 11.2496 10.2528 11.2496C10.2528 11.2496 10.4229 11.0634 10.502 10.9626C10.579 10.8646 10.6441 10.7694 10.6861 10.7015C10.7687 10.5685 10.7946 10.432 10.7512 10.3263C10.5552 9.8475 10.3522 9.3708 10.1436 8.8976C10.1023 8.8038 9.97981 8.7366 9.86851 8.7233C9.83071 8.7191 9.79291 8.7149 9.75511 8.7121C9.6611 8.70743 9.5669 8.70836 9.47301 8.7149L9.61371 8.7093L9.61441 8.71Z" fill="#F1F1FF"/>
</svg>
